<svg xmlns="http://www.w3.org/2000/svg" xmlns:xlink="http://www.w3.org/1999/xlink" width="22" height="24" viewBox="0 0 22 24">
    <defs>
        <path id="a" d="M0 .006h21.615v23.926H0z"/>
    </defs>
    <g fill="none" fill-rule="evenodd">
        <g transform="translate(0 .062)">
            <mask id="b" fill="#fff">
                <use xlink:href="#a"/>
            </mask>
            <path fill="#231F20" d="M10.917.01c-.026.01-.062.094-.062.094s-.094.219-.219.531c-.125.313-.594 1.156-1.015 1.828-.422.672-1.454 2.407-1.938 3.36-.484.953-.86 3.25-.86 3.25s-1.28-1.406-3.28-1.266c-2 .14-3 1.703-3.173 2.078-.171.375-.828 1.828.172 3.703 1 1.875 3.172 2.813 3.172 2.813-.203-2.062.328-2.797.922-3.094.594-.297 1.219-.234 1.922.125.703.36.969 1.047.969 1.047s.015.438.031.61c.016.171.14.562.203.875.063.312-.047.296-.14.343-.094.047-.313.094-.47.282-.155.187-.156.562-.015.796.14.235.297.25.469.313.172.062.422-.063.469.016.047.078.015.125-.094.28-.11.157-.328.345-.422.423-.094.078-.266.234-.266.234-1.312-.11-1.562-1.031-1.593-1.172-.032-.14-.125-.078-.188-.062-.062.015-.469.031-1.047.64-.578.61-.39 1.657-.234 2.094.156.438.703 1.078 1.422 1.406.719.328 1.343.11 1.969-.109.625-.219.843-.719.953-.703.109.016.078.11.125.187.047.078 0 0 .562 1.172.563 1.172 1.703 1.828 1.703 1.828s.8-.6 1.098-1.068c.298-.468.702-1.138.851-1.522.15-.383.33-.755.33-.755s.948 1 2.055.979c1.106-.021 1.628-.362 2.235-1.373.606-1.011-.064-2.129-.181-2.288-.117-.16-.48-.511-.745-.65l-.266-.138s-.181.82-.64 1.128c-.457.309-.68.383-.914.394-.234.01-.415-.032-.415-.032s-.032-.16-.224-.234c-.191-.074-.32-.085-.351-.17-.032-.085-.107-.288-.128-.33a1.155 1.155 0 0 1-.042-.202s.33.063.627-.181c.299-.245.235-.543.17-.735a.809.809 0 0 0-.361-.404c-.096-.043-.234-.096-.202-.256s.213-1.277.276-1.5c.064-.224.948-1.437 1.725-1.49.777-.054 1.383-.032 1.883.723.5.756.266 2.236.266 2.236s1.278-.618 1.916-1.224c.639-.607 1.086-1.054 1.352-1.746s.585-2.033.032-3.257c-.554-1.224-1.224-1.84-2.48-2.107-1.256-.266-2.97.543-3.363.883-.394.341-.522.415-.522.415s-.117.086-.127-.074a9.792 9.792 0 0 0-.405-2.086c-.309-.958-.83-2.182-1.277-2.874-.447-.692-1.022-1.49-1.267-1.926A12.597 12.597 0 0 1 11.2.674l-.176-.502c-.05-.14-.059-.18-.107-.162" mask="url(#b)"/>
        </g>
        <path fill="#FFCA05" d="M10.973.714c.085.361.277.658.436.976.51.976 1.233 1.825 1.744 2.812.244.414.446.849.627 1.294.191.435.35.891.5 1.348.223.7.297 1.485.372 2.28.042.022 0 .15.095.117.596-.52 1.191-1.029 1.935-1.294.064-.053.139-.064.224-.095a6.802 6.802 0 0 1 1.275-.223v-.022l.032.032c0-.01.01-.01.01-.032l.022.032c.032-.053.106-.02.16-.032-.011.022 0 .022.01.032.01 0 .022-.01.022-.01-.011.01.063.021.063-.022v.022l.309.021c.031.032.106.042.17.042 0 .043.063.011.095.032a.432.432 0 0 1-.276.138c-.085.021-.149.074-.245.096-1.01.34-2.062.604-3.083.944-.393.265-.818.498-1.244.71-.042.022-.042-.031-.063-.042.053-.88-.117-1.612-.287-2.355-.107-.53-.351-.976-.49-1.485a20.016 20.016 0 0 0-1.764-3.162 2.307 2.307 0 0 1-.351-.584c-.074-.074-.106-.19-.138-.297-.085-.063-.107-.159-.128-.275-.032-.075-.053-.17-.127-.191-.096.106-.096.244-.15.37a1.22 1.22 0 0 0-.148.34c-.308.584-.66 1.146-1 1.72-.52.784-.999 1.622-1.339 2.524a.347.347 0 0 0-.074.191c-.032.021-.043.064-.032.117-.032.01-.053.064-.043.106-.032.021-.042.074-.042.117a.55.55 0 0 0-.075.233v.032c-.042.021-.02.095-.032.127a.192.192 0 0 0-.042.16c-.032.042-.032.127-.053.18-.01.053-.032.095-.022.159-.042.042-.042.117-.042.18h-.01c0 .18-.075.276-.065.457H7.7c-.01.254-.106.424-.064.69-.01 0-.021.01-.032.01.01.01.022.02.032.01l-.032.043v.742H7.54c.011-.053-.042-.01-.063-.042-.596-.255-1.053-.775-1.733-.912-.022-.032-.064-.054-.117-.043v-.01C5.594 9 5.54 9.01 5.498 9.01c-.01-.064-.117-.043-.17-.053-.032-.032-.096-.032-.127-.053-.054-.01-.096-.032-.16-.021-.021-.043-.085-.043-.138-.043a.437.437 0 0 0-.234-.074h-.032a.438.438 0 0 0-.234-.074h-.032c-.032-.043-.095-.043-.127-.053-.117.01-.15-.075-.255-.064-.032-.042-.107-.032-.16-.042-.021-.043-.085-.022-.128-.032-.02-.043-.084-.043-.138-.043a.438.438 0 0 0-.234-.074h-.031c-.022-.042-.086-.021-.128-.042-.021-.043-.074-.022-.117-.032-.053-.053-.16-.022-.202-.085h-.053c0-.01-.01-.01-.01-.021h-.043c0-.043.085-.022.106-.064.053-.01.117 0 .18-.021.256-.021.5-.075.787-.053v.01c.245-.01.362.085.617.064.021.053.106.01.149.042v.01c.064.012.117.033.191.022.01.043.075.032.117.043 0 .053.064 0 .085.031.776.266 1.404.764 2.02 1.305l.096-.01.032-.658h.01c.022-.233.064-.424.064-.668.032-.053.032-.149.053-.202.011-.074.032-.138.022-.223.032-.032.042-.095.042-.148.032-.032.043-.106.032-.17a.179.179 0 0 0 .043-.149c.053-.063.02-.159.074-.233v-.032c.043-.021.032-.085.043-.116.042-.022.02-.075.031-.117.043-.01.032-.075.043-.117.043-.01.032-.074.043-.117.042 0 0-.053.031-.074.256-.583.5-1.188.84-1.73.702-1.22 1.467-2.397 2.148-3.628.021-.127.106-.19.138-.318.053-.074.106-.329.191-.17"/>
        <path fill="#FFCA05" d="M10.771 2.709c-.01-.01-.02 0-.02.01l.02.053h-.01l-.032.775c-.01 0-.01 0-.021.01 0 .011.01.022.01.022l-.021.605h-.01l-.033.7h-.01l-.021.753c-.022-.01-.022 0-.032.01.01 0 .01.011.032.011l-.032.043-.011.636h-.01l-.033.637c-.031.042-.042.223-.031.35v.233c-.011 0-.022 0-.032.011a.251.251 0 0 1 .032.127c-.011 0-.022.01-.032.01.053.012.021.075.032.107l-.032.032c-.011.244.042.52-.085.69-.192.02-.351.063-.458.201 0 .053-.074.042-.095.064a.371.371 0 0 0-.224-.032v-.01c-.19-.011-.403-.054-.574-.022a.667.667 0 0 0-.33.371c-.052.075-.02.149-.031.244.042.085.085.16.16.212.074.011.095.096.17.096.042-.053.02-.106.053-.16.074-.01.106.033.138.064.16.128.308.266.468.372.032.042.074.085.106.117.18.17.372.329.35.626-.052 0-.01.063-.042.084-.085.191-.265.297-.414.435-.011.054.042.17-.064.138-.085.064-.18.075-.276.106a.701.701 0 0 0-.266-.042c-.064-.032-.15-.053-.202-.117-.085-.053-.096-.159-.202-.19-.043-.096-.139-.139-.17-.234-.16-.16-.277-.35-.447-.488-.053-.074-.096-.16-.149-.212V8.979h.01l.022-.318h.021l.022-.223h.01l.032-.276h.01c.012-.063.033-.127.022-.212.032-.032.043-.106.043-.17.032-.021.032-.085.032-.138a.191.191 0 0 0 .042-.159c.032-.032.043-.095.043-.148.031-.032.042-.096.031-.149.054 0 .011-.064.043-.085.021-.085.085-.148.074-.254a.74.74 0 0 0 .085-.213c.51-1.358 1.34-2.482 2.063-3.713.085-.16.17-.35.276-.488v.276zM10.952 3.24c-.042.031.021.052.01.074V5.17c-.01 0-.02.01-.02.021.074-.042.053.054.063.107-.021 0-.021.01-.032.02.054.033.022.117.032.17-.021 0-.021.011-.032.022.054.042.022.138.032.212-.021 0-.021.01-.032.01l.032.043c-.01.679 0 1.432.032 2.122-.01 0-.021.01-.021.01l.021.053c-.01 0-.021.011-.021.011 0 .01.01.021.021.021l-.021.022c.042.042.01.127.021.19-.01 0-.021.011-.021.011.042.106.01.265.021.393-.01 0-.021.01-.021.02v.033c-.085.021-.096-.074-.18-.053-.054-.01-.086-.064-.15-.074v-.637c.01.01.01 0 .022-.01-.032-.022-.032-.054 0-.075-.011-.255.01-.52.042-.753-.01-.022-.042 0-.032-.022v-.042h.01l.033-.965h.01c.022-.595.064-1.146.064-1.751h.01c-.01-.583.086-1.103.065-1.676.031 0 .031-.032.031-.053 0 .233-.01.52.011.69M11.282 2.804c.382.573.776 1.114 1.084 1.73.393.583.66 1.283.914 1.952.362.795.5 1.75.628 2.663.02.297.02.626 0 .923-.5.392-.649 1.071-1.18 1.4h-.213c-.053-.02-.096-.063-.149-.095a.558.558 0 0 1-.149-.371h.01c.054-.128-.052-.276.022-.361v-.032h.01c.054-.138-.02-.223-.031-.35.01-.117-.138-.17-.096-.287.085 0 .17 0 .191-.074-.042-.202-.19-.35-.318-.499.16-.074.308-.148.425-.297.01-.053-.021-.074-.053-.095-.17 0-.32-.01-.479-.021v-.01c-.074-.012-.138-.033-.223-.022-.032-.043-.096-.032-.149-.043-.064-.053-.17-.031-.202-.116-.042-.319-.042-.68-.053-1.03-.01-.403-.043-.848-.032-1.22l-.021-.042c.01-.36-.032-.753-.01-1.06-.011-.033-.054-.054 0-.065l-.011-.02c-.032-.987-.064-1.794-.064-2.802.064.053.117.16.149.244"/>
        <path fill="#6F3D22" d="M19.425 8.226c0 .074.032.127.032.19-.032.064-.032.139-.074.192-.351.35-.883.435-1.34.604-.68.191-1.446.276-2.169.414-.33.308-.712.626-1.19.605l-.032.032c.021.063.085.063.149.053-.064.233-.298.276-.479.371-.095.043-.244.01-.319.074.032.075.15.022.17.096-.063.201-.276.308-.489.34-.01.052.043.031.064.063h.128c0 .223-.255.308-.426.393-.02.01-.116.042-.063.095.074.021.17.043.191.106 0 .064-.096.085-.085.16-.149.095-.213.339-.478.222-.032-.042-.086-.085-.086-.159.064 0 .086-.042.15-.064.042-.127-.107-.159-.139-.244-.053-.01-.053-.074-.117-.053-.01.085.085.16.096.255-.075.042-.18.021-.18.117.02.042.095.053.084.127.01.053-.095.021-.149.021v-.01l-.287-.022c-.032-.031-.095-.042-.149-.042-.031-.032-.106-.085-.042-.127.117-.053.308.074.308-.117-.074-.053-.095-.191-.212-.202-.054.085.042.106.01.191l-.255-.01c0-.022-.021-.032-.042-.022h-.032c-.043.075.053.117.064.191-.34-.084-.575-.34-.83-.509-.064-.053 0-.106.032-.148.053.02.075.084.106.116-.02.075.075.064.054.138l.085.096c.127-.085.16-.308.319-.297.085.106.18.201.319.233.042-.064.074-.127.116-.19.16.105.447.222.649.084.52-.403.66-1.135 1.254-1.464.086.01.117-.053.181-.085.415-.17.766-.435 1.148-.647.224-.074.394-.212.649-.244a32.616 32.616 0 0 0 3.083-.987c.096-.01.16.032.223.064"/>
        <path fill="#FFCA05" d="M19.648 8.215c.064.043.128.064.181.117.936.562 1.425 1.58 1.606 2.716.042.255.031.477.01.743h-.01l-.022.254h-.01l-.032.234c-.032.032-.043.106-.032.17-.085.042 0 .2-.085.254v.032c-.032.021-.043.074-.032.116-.043.054-.064.128-.096.192-.17.403-.361.785-.659 1.103-.18.19-.34.382-.553.573-.308.18-.553.477-.872.626-.233.106-.403.276-.627.371-.042-.01-.064.021-.095.021v.022h-.022c.064-.764-.117-1.422-.393-2.006-.085-.042-.106-.159-.18-.201 0-.01 0-.032-.011-.043-.043.011-.043-.053-.064-.063-.245-.202-.5-.393-.84-.446-.064-.032-.17-.032-.234-.042a1.891 1.891 0 0 0-.489 0l-.255.02c.096-.2.255-.307.468-.381.127-.021.159-.202.287-.212.032-.074.127-.032.191-.043.032.032.106.043.17.043.043.042.149.01.192.074.478.138.797.488 1.105.86.138.19.191.434.287.657.085.297.096.637.085.987l.022.042c.797-.488 1.488-1.199 1.913-2.026.075-.106.128-.234.16-.372.032-.02.042-.063.032-.116a.192.192 0 0 0 .042-.16c.032-.031.043-.084.043-.137h.01c.106-.573.085-1.284-.127-1.761-.011-.096-.043-.138-.064-.213-.234-.562-.691-1.04-1.201-1.379-.043-.19.18-.265.148-.467.022 0 .022-.01.032-.02-.042-.022-.021-.086-.032-.139h.053z"/>
        <path fill="#FEFEFE" d="M10.85 11.35c.064-.042.06-.058.006-.154-.032-.01-.01-.127-.095-.084-.085.042-.17.18-.266.212-.096-.064.032-.318-.16-.308-.01.085-.01.18-.095.191h-.053c0-.01-.011-.021-.011-.021-.01 0-.021.01-.021.021-.043-.053-.15 0-.213-.032.138-.085.18-.254.308-.35-.01-.117.075-.18.022-.308-.043-.477-.574-.647-.84-.976a.847.847 0 0 1-.245-.19c.096 0 .224-.011.255.063-.01 0-.031 0-.031.01.053.096.159.128.287.128v.01c.074.032.191.022.244-.02.043-.032.043-.096.043-.15-.117-.148-.234-.264-.447-.243a.29.29 0 0 0-.17-.043c-.01-.042-.074-.01-.117-.02l-.074.063c.042.042.117.01.18.021-.01.01 0 .021.011.032h.043c-.181-.01-.351-.01-.436.138-.043.021-.022.085-.043.127-.01 0-.021 0-.021.01 0 0-.064-.031-.043-.084-.032-.075-.053-.127-.02-.223.042-.053.052-.127.095-.191.202-.223.542-.053.829-.074 0 .053.053.01.064.042.064.096.117.202.212.287.011-.022.075-.043.032-.085h-.01v-.01c.02 0 .042.042.085.02.032-.02.032-.084.02-.116-.052-.032-.01-.149-.095-.149-.042 0-.063.021-.063.064v.053c-.032-.01-.054-.064-.022-.096.096-.148.255-.212.447-.244-.01.022 0 .022.01.032.032-.032.15 0 .213.01.021.043.085.033.117.043 0 .043.064 0 .074.032.117.074.256.127.383.16.021.042.085.02.117.031.032.042.096.042.138.042.022.043.085.022.128.032v.022c.18.02.319.053.5.063 0 .064-.085.074-.128.096-.085-.022-.085.053-.16.032-.042-.032-.117-.054-.17-.032.075.095.17.17.181.297h-.053c-.01-.053-.075-.01-.106-.043-.064-.02-.139-.042-.213-.074-.032.042.01.085.01.127h.011v.043c-.223-.064-.393-.191-.574-.318-.191-.128-.436-.245-.712-.16.01.064.085.085.074.17.053.096.15.138.255.16v.02c.16.054.277-.053.404-.053.17.17.383.287.638.34-.01.021.01.032.032.032.064.021.053-.064.096-.064-.032-.085.042-.085.096-.085v.021c.031.022.074.011.116.011.043-.021.054-.117.118-.064.042.075.116.18.085.245h-.075v-.022c-.074 0-.149-.042-.234-.01.064.127.202.212.234.36.043.075.085.138.064.255-.17 0-.18-.212-.33-.244 0-.01-.01-.021-.01-.021-.139.032-.181.19-.287.254-.085-.095-.064-.265-.224-.276-.117.054-.148.191-.276.191l-.138-.212c-.085-.032-.096.064-.15.075l-.19.159c-.15-.18-.202-.53-.51-.541-.011-.053-.075-.053-.118-.053 0-.011-.01-.011-.01-.022-.053-.021-.053.032-.075.053.032.17.277.064.287.244.224.075.245.33.383.467h.043c-.043.16-.234.212-.256.372.107.042.15-.075.245-.107.064-.02.053.043.074.075.054.042.064.138.16.116.042-.084.138-.138.18-.212.128.032.15.191.266.255.16-.01.16-.17.277-.234.127.096.127.361.35.308.064-.053.064-.19.16-.18.032.085.128.127.149.223v.254c-.053.01 0 .138-.085.106-.01-.085-.096-.085-.128-.138-.064-.042-.095-.106-.17-.148-.106.064-.096.19-.191.265-.085.032-.064-.074-.107-.085-.031-.106-.053-.254-.17-.276-.063.096-.127.255-.244.234-.032-.053-.064.021-.117.021l-.05.005z"/>
        <path fill="#6F3D22" d="M10.83 11.41c-.192.233-.388.36-.675.487-.01-.085.064-.191.095-.276-.031-.053-.085-.021-.106.01-.16 0-.319-.01-.468.011-.021.053.032.053.053.074h.32a.254.254 0 0 1-.107.255c-.244.032-.425.138-.68.16.01-.15.138-.213.18-.32-.095-.126-.19.022-.33-.031-.052-.042-.137-.053-.19-.095-.022 0-.064-.022-.064.02.01.086.095.086.138.139h.053c.021.084.213-.022.149.106-.053.053-.075.19-.16.212-.361.074-.595-.096-.808-.265.075-.106.288.01.373-.106-.15-.085-.298-.149-.447-.223-.085-.085-.223-.138-.266-.255h.053c.032.032.096.043.15.032 0 .021.01.021.01.032l.053-.053c-.18-.191-.51-.212-.585-.51.085 0 .181.011.266-.01-.021-.085-.106-.074-.18-.096 0-.042-.064 0-.086-.031h-.16c-.01-.043-.074-.032-.105-.043 0-.053-.064 0-.086-.032-.063-.074-.19-.085-.223-.18.01 0 .043.01.053-.01v-.022l.022.032c.01-.01.01-.01.01-.032l.032.032c0-.01.01-.01.01-.032.011.053.086.021.128.032.022-.021 0-.064-.01-.064-.032-.01-.053-.032-.096-.032-.032-.031-.117-.031-.18-.031v-.011c-.064-.01-.128-.042-.203-.032-.01-.042-.074-.02-.117-.032-.01-.042-.074-.031-.106-.042 0-.053-.064-.01-.085-.043-.223-.074-.361-.275-.574-.381-.064-.022-.106-.107-.213-.075v-.01l-.265-.022v-.02l-.266-.022a.29.29 0 0 0-.17-.043v-.01c-.075-.01-.139-.032-.213-.021a.39.39 0 0 0-.191-.043c-.032-.032-.096-.032-.128-.053-.064 0-.128-.032-.191-.02-.032-.033-.096-.043-.15-.043-.031-.032-.095-.043-.148-.032-.021-.032-.074-.043-.117-.043-.021-.031-.064-.042-.117-.031-.01-.032-.064-.053-.106-.043-.01-.053-.075-.01-.096-.042-.287-.106-.574-.223-.86-.34-.033-.032-.086-.032-.118-.064-.096-.095-.202-.159-.16-.328.032-.075.086-.085.15-.128.148-.01.244.064.36.085.022.032.075.043.118.043.021.031.074.042.117.031.053.053.127.053.202.085h.042c.032.032.096.043.15.032.031.032.095.043.159.043.053.053.16.02.223.074h.042c.011.042.075.032.117.042.022.032.085.032.139.032.031.032.095.043.148.043.022.042.085.02.128.031a.157.157 0 0 0 .138.043c.032.032.096.042.16.042.032.032.095.043.149.032a.437.437 0 0 0 .233.074h.032a.229.229 0 0 0 .17.043c.032.032.085.042.139.042.053.043.17.01.223.075h.042c.064.031.117.074.213.074.617.307 1.127.764 1.786 1.029.128.064.191.17.277.286.159.128.244.297.372.456.202.191.372.467.659.52h.042v.011c.298.01.627-.01.83-.202.085-.074.244-.02.35-.053.032.075.043.18.117.202.16.01.164-.162.344-.12l.087-.006z"/>
        <path fill="#FFCA05" d="M2.288 8.703c.053.064.106.149.063.255-.042.032-.01.127-.074.148a3.59 3.59 0 0 0-1.265 1.624c-.043.01-.032.074-.043.106-.032.032-.042.095-.032.159h-.01c-.01.074-.043.138-.032.212h-.01c-.043.096-.022.212-.022.318H.842c-.043.234.032.404.042.626.01.223.085.403.17.584.192.583.543 1.071.925 1.528.138.17.34.275.479.445.191.128.34.319.584.372.022-.266.054-.478.064-.754.053-.021 0-.116.032-.159.053-.032.01-.117.043-.16.053 0 .01-.052.042-.073.117-.276.287-.563.49-.785.084-.053.137-.138.233-.17a2.455 2.455 0 0 1 1.542-.446c.053.043.095.085.159.106.191.022.266.234.447.319.085.031.212.042.233.148v.021c-.095.011-.138-.053-.233-.042a.192.192 0 0 0-.16-.042c-.064-.043-.18-.022-.244-.064 0 .01-.011.01-.011.021-.138-.032-.34-.021-.5-.01a1.867 1.867 0 0 0-1.562 1.442c-.043.032-.043.096-.043.149-.032.042-.032.138-.053.19-.01.075-.032.139-.021.224h-.011l-.032.456h-.01c-.054.19.053.329.01.53-.043.011 0 .117-.085.075C1.745 15.27.416 13.743.236 11.812c.01 0 .021-.01.021-.021-.043-.096-.01-.255-.021-.382.042-.011.01-.075.021-.106 0-.011-.01-.022-.021-.022.053-.116 0-.286.032-.424a.228.228 0 0 0 .042-.17c.053-.063.021-.159.075-.233a3.368 3.368 0 0 1 1.127-1.56c.18-.201.435-.318.659-.456.117.01.042.202.117.265"/>
        <path fill="#231F20" d="M19.074 8.565c.011.085-.127.022-.148.096-.915.36-1.914.551-2.935.71-.01-.02-.053-.052 0-.063 1.095-.127 2.095-.456 3.083-.743M3.01 8.671c0 .053.064.011.086.043.116.085.276.106.414.148.021.043.075.032.117.043 0 .053.053.01.074.042.096 0 .16.085.266.074.022.043.085.032.117.032a.157.157 0 0 0 .138.043c.032.032.096.042.16.042.032.032.117.032.149.043.117.031.191.063.308.063.043.043.149.043.202.053.064.011.117.043.18.032v.01l.235.022v.01l.265.032c.032.043.17 0 .16.085-.191.032-.35-.042-.553-.031a.3.3 0 0 0-.191-.043v-.01c-.075-.011-.128-.032-.213-.032-.042-.032-.127-.032-.17-.043-.064-.01-.106-.042-.17-.032-.021-.031-.085-.031-.138-.031a.192.192 0 0 0-.16-.043c-.01-.042-.085-.021-.127-.042 0-.043-.064 0-.085-.032-.107-.01-.16-.096-.277-.074a.118.118 0 0 0-.117-.043c-.042-.042-.149-.01-.18-.074-.139-.043-.288-.117-.436-.16-.054-.02-.107-.063-.16-.084-.085-.032-.18-.032-.18-.128.095.022.201.054.286.085"/>
        <path fill="#6F3D22" d="M19.308 9.043c-.053.01-.01.074-.042.095-.107.223-.298.424-.574.456-.426.117-.925.138-1.436.128-.053-.022-.085-.064-.063-.128.255-.116.542-.148.829-.222.372-.064.67-.255 1.031-.361.096-.032.16-.17.255-.117v.149zM2.947 9.138c.106.032.212.075.319.106a.118.118 0 0 0 .117.043.437.437 0 0 0 .233.074c.054.053.128.064.213.074.117.01.191.096.32.085.063.053.158.032.244.074.042-.01.074.022.074.064-.032.085.064.117.053.149-.17.084-.404.01-.585.01l-.308-.021c-.042-.032-.117-.042-.191-.042-.032-.032-.096-.043-.15-.032-.031-.032-.095-.043-.148-.043-.01-.032-.064-.042-.106-.032-.064-.042-.128-.063-.192-.095a.515.515 0 0 1-.34-.286c-.032-.085-.042-.255.021-.319.139.053.298.106.426.191"/>
        <path fill="#231F20" d="M9.93 9.165c-.034.082-.15.062-.2.02v-.164c.066 0 .166.062.2.144"/>
        <path fill="#FFCA05" d="M19.691 9.244c.16.16.33.287.436.478.191.201.287.445.404.69.149.381.234.827.18 1.304l-.031.255c-.043.032 0 .117-.032.17-.043.042-.032.127-.043.19h-.01c0 .287-.181.446-.255.69-.383.616-.883 1.178-1.51 1.592.01-.563-.17-1.019-.415-1.433-.085-.116-.202-.212-.287-.318 0-.053-.074-.042-.095-.085-.266-.275-.564-.488-.947-.573h-.063c-.011-.053-.075-.01-.107-.042-.01-.043.021-.074.053-.096.128-.063.277-.127.372-.244.064-.18.234-.244.394-.318.212-.095.255-.318.361-.498.213-.064.415-.202.5-.425 0-.032.01-.095.01-.148.054-.011 0-.075.033-.107a.776.776 0 0 0 .446-.466c.032-.138-.021-.319.149-.361.096-.117.16-.244.202-.403.127-.021.138.138.255.148"/>
        <path fill="#FEFEFE" d="M9.517 9.212c.032.054.117 0 .16.032.063.032.127.064.19.106 0 .043.054.085 0 .106-.031.022-.074.011-.116.011.064-.032.042-.106.01-.138-.053-.021-.085-.085-.16-.063-.031-.043-.116-.043-.159-.054h.075zM10.613 9.448a.458.458 0 0 1-.235-.235c.059.058.147.176.235.235"/>
        <path fill="#231F20" d="M10.325 9.372c.117.148.361.148.531.106 0 .01.011.021.022.021-.01 0-.032.074-.085.042-.107.032-.255.053-.351-.01-.064-.053-.202-.106-.18-.223.042 0 .042.032.063.064"/>
        <path fill="#FEFEFE" d="M10.782 9.311c-.032.278-.117.232-.18.278l-.022-.093c.096.14.106-.232.202-.185"/>
        <path fill="#FFCA05" d="M2.405 9.414c.085.096.191.17.287.244.042.085-.032.329.063.435.075.255.458.233.415.552.096.17.255.318.446.36 0 .043.054.022.086.043a.82.82 0 0 0 .605.552c.075.254.32.382.575.413.063.107.148.244.276.287v.032c-.128-.021-.223.032-.361.053-.691.148-1.361.573-1.68 1.21-.075.105-.117.264-.15.402-.042.043-.042.138-.052.191-.021.18-.064.319-.064.51-.106-.032-.18-.117-.255-.191-.893-.732-1.51-1.72-1.563-2.929h.021l.022-.275h.01c.01-.075.032-.138.032-.223.032-.032.043-.096.032-.149.032-.021.043-.074.043-.117.042-.063.063-.137.095-.201.064-.191.18-.34.287-.51.213-.275.436-.562.723-.753.053-.01.107 0 .107.064"/>
        <path fill="#6F3D22" d="M17.023 9.594c.02.223-.213.276-.33.393-.202.053-.447.117-.67.053l-.223-.01c0-.054-.064-.011-.074-.043.127-.138.212-.297.467-.265.255-.022.468-.053.691-.128h.139zM4.84 9.669v.01c.063.01.127.043.201.032v.01c.074.011.138.033.223.022v.01l.298.032c.021.054.096 0 .128.032.106.032.212.096.233.212-.287-.01-.51.064-.808.032v-.01c-.074-.011-.138-.032-.212-.022-.085-.127-.191-.233-.266-.35.043-.053.128.01.202-.01M18.957 9.658c.011.255-.19.446-.393.562-.074 0-.085.064-.16.064-.148.032-.297.01-.467.032-.298.053-.404-.032-.723-.021 0-.011-.01-.022-.01-.032-.075.01-.267.01-.362-.043-.043.011-.064-.031-.085-.053-.01-.116.117-.095.16-.17.201-.307.69-.042.999-.18l.02.032c.107-.042.267-.021.362-.064.224-.031.436-.095.66-.127M3.01 9.743c.022.042.086.032.117.042.032.032.085.043.139.032.032.043.117.043.16.053.063.01.116.043.19.032v.01c.117.033.245.022.383.022v.01l.649.022c.127.063.18.223.34.233l.042.053c-.063.064-.18.043-.265.064-.181.053-.5 0-.628.053 0-.01-.01-.021-.01-.021-.01 0-.021.01-.01.02l-.033-.02s-.01.01-.01.02c-.054-.073-.064.043-.139 0v-.01l-.5-.032v-.01c-.074-.01-.137-.032-.212-.021-.064-.053-.138-.053-.191-.106-.096-.138-.202-.255-.16-.457l.138.01zM15.747 10.125v.01l.266.032v.01c.17.022.35.033.5-.01.01.117-.139.17-.235.213-.127.074-.33.042-.478.031-.032-.053-.128-.01-.18-.042-.033-.032-.096-.043-.15-.043-.042-.042-.17-.031-.117-.127.107.032.139-.085.213-.106.043.032.117.032.18.032M6.062 10.125c.042.042.149.01.18.074.075.053.202.064.245.149-.34.095-.904.265-1.201 0-.032-.053-.096-.075-.085-.149.138-.021.308.01.457-.021.053-.01.244-.01.34-.053h.064z"/>
        <path fill="#FEFEFE" d="M10.941 10.486c.139.063.181-.128.298-.138.138.02.234.329.362.106.085 0 .095-.149.202-.096.074.085.17.191.265.255 0 .095.064.127.043.223-.117-.022-.138-.138-.18-.223-.086-.053-.075.085-.118.117.01.063-.053.074-.042.138a.6.6 0 0 1-.245-.244c-.053-.075-.096-.022-.17 0 .032.116-.106.137-.138.201-.16-.032-.149-.308-.34-.255-.022.075-.075.107-.117.138-.053.043-.085-.01-.096-.063-.021-.064-.053-.138-.106-.17.095-.053.16-.212.287-.191.01.085.074.127.095.202"/>
        <path fill="#6F3D22" d="M15.056 10.316c.063.042.138.074.202.106.085.01.149.042.234.053v.01l.297.022v.01l.266.032c-.021.138-.18.17-.287.244h-.276c0-.02-.011-.02-.011-.032a.98.98 0 0 1-.372-.053h-.043c-.02-.031-.085-.031-.138-.031-.021-.032-.064-.043-.117-.043-.032-.117.149-.148.16-.276.042-.01.032-.063.085-.042M16.704 10.316c.031.042.117.021.148.064.064-.011.096.031.16.01v.021a4.58 4.58 0 0 0 1.425 0c.01 0 .031.043.031.085-.149.255-.393.435-.733.435v.01l-.022-.02c-.01.042-.074.01-.106.02v-.01c-.106-.032-.244 0-.35-.032-.033-.031-.096-.042-.16-.031-.032-.032-.117-.043-.18-.043-.011-.032-.065-.042-.107-.032-.01-.053-.075-.01-.096-.042-.074-.01-.127-.064-.223-.074-.064-.053-.18-.053-.191-.138.138-.053.265-.16.404-.223M5.307 10.55c.064.031.117.074.18.116-.053.095-.212.064-.308.127-.117.032-.212.021-.33.064 0 .032 0-.021-.01-.021-.319.106-.733.074-1.095.063-.043-.042-.16-.01-.191-.074-.138-.053-.255-.159-.255-.329.031-.085.074.064.117-.021l.031.021c.553.021 1.18.032 1.659-.063.085.02.117.106.202.116M6.944 10.613c.021.01.01.042.01.064-.318.084-.616.19-1.02.148-.053-.01-.085-.064-.149-.074-.021-.053-.085-.043-.074-.106.33-.032.648-.106.935-.212.15-.043.17.159.298.18M14.715 10.698c.054.021.096.085.181.074h.064c.032.042.128.042.17.053.192.021.362.064.542.064.011.148-.148.18-.255.233-.095.064-.223-.01-.35.01v-.01c-.075-.01-.139-.032-.213-.032-.032-.032-.096-.042-.149-.032-.021-.042-.096-.02-.128-.042-.074-.042-.159-.053-.223-.095-.042-.085.032-.128.075-.16.106-.01.17-.095.286-.063M16.746 10.889c.032.042.117.021.149.063.053-.01.096.032.149.011.053.043.149.043.191.053.202.053.436.021.66.032.01.18-.16.286-.277.392a1.072 1.072 0 0 1-.521.032c-.032-.032-.117-.032-.18-.032-.033-.031-.096-.042-.15-.042-.074-.042-.148-.053-.234-.085a2.527 2.527 0 0 1-.68-.329c.032-.042.032-.095.085-.127.16 0 .223-.255.362-.106.149.053.287.117.446.138M7.22 10.74c.032.043.128.01.15.075 0 .063.063.106 0 .137-.086.053-.16.064-.256.096-.127.085-.372.042-.531.085H6.39c-.042-.043-.16-.01-.202-.075-.032-.031-.117-.02-.138-.074.053-.095.244-.032.34-.085.287-.01.51-.095.755-.17.021.022.053.011.074.011"/>
        <path fill="#231F20" d="M20.106 10.952c-.032.043-.032.138-.043.18-.01.054-.042.107-.032.17h-.01c-.011.075-.032.138-.022.213h-.021c0 .085-.043.18-.01.265.17.191.425.297.542.51-.213.074-.468.116-.691.169-.16.021-.139.202-.202.308-.064.159-.15.307-.224.466-.085.022-.085-.127-.149-.18-.127-.18-.202-.403-.382-.541h-.107c0-.021 0-.021-.01-.032-.021.01 0 .043-.021.032h-.043v-.021l-.616-.021c-.011-.053-.075-.011-.107-.043.191-.223.49-.35.68-.615-.02-.319-.138-.563-.19-.86.201.043.371.128.53.223.128.021.31.202.415.01.245-.127.447-.328.713-.413v.18z"/>
        <path fill="#6F3D22" d="M5.838 10.963c-.01.021 0 .021.011.032.043-.01.064.032.074.074-.031.085-.148.106-.244.127-.436.149-.946.255-1.478.202 0-.053-.053 0-.074-.032-.117-.042-.192-.159-.234-.286.595-.053 1.19-.085 1.7-.265.065.053.15.127.245.148"/>
        <path fill="#231F20" d="M3.35 11.07c-.042.042-.042.137-.052.19-.022.138-.064.223-.064.371h-.01c-.012.075-.043.149-.033.223.213.18.457.319.627.53-.053.075-.148.107-.265.107-.224.032-.426.053-.649.085-.138.244-.266.467-.361.732-.075.063-.107-.043-.139-.075-.074-.19-.159-.392-.233-.583-.096-.085-.245-.064-.383-.064v-.01l-.308-.032v-.01c-.075-.043-.224.031-.256-.064.202-.202.479-.35.638-.595-.032-.063-.032-.159-.042-.233-.064-.19-.096-.424-.128-.636.245-.022.383.18.574.265.096.042.17.233.298.106.223-.149.446-.297.68-.425l.107.011v.106z"/>
        <path fill="#FFCA05" d="M19.904 11.027a5.22 5.22 0 0 1-.564.764c-.042-.117-.01-.287-.021-.446.18-.127.372-.233.574-.34 0 .011.01.022.01.022"/>
        <path fill="#6F3D22" d="M14.333 11.048c0 .042.064 0 .085.032.096.042.18.074.297.074.043.042.15.042.202.053.075.01.139.043.213.032.021.042.085 0 .117.032-.085.138-.298.17-.478.127v-.01c-.075-.022-.15-.011-.224-.022-.02-.053-.085-.021-.127-.042-.043-.043-.16-.01-.202-.074-.053.02-.053-.043-.085-.043.053-.042.095-.18.202-.16M7.667 11.196c.032.043-.032.064-.043.085-.318.096-.829.17-1.116-.01.32-.043.627-.096.925-.202.128-.032.138.106.234.127M15.98 11.207c.16.085.31.18.511.223.021.032.085.032.138.032.021.042.096.042.128.053.202 0 .308.116.52.106.043.074-.031.117-.063.17-.117.18-.468.106-.649.063-.031-.032-.085-.042-.138-.032a.368.368 0 0 0-.212-.074c0-.053-.054-.01-.075-.042a2.199 2.199 0 0 1-.712-.382c.01-.043.053-.064.085-.085.149.021.191-.223.34-.085l.128.053z"/>
        <path fill="#FFCA05" d="M18.787 11.154c0 .053.053.01.075.042.117.117.457.053.34.361.053.01.021.085.032.127-.021-.01-.032.011-.032.022v.042c-.064-.064-.096-.138-.191-.19-.064-.15-.192-.245-.266-.404h.042zM19.957 11.281c-.032.053-.032.149-.053.191-.011.053-.032.096-.022.16-.042.063-.053.127-.16.137-.074.022-.137.064-.233.064.128-.233.287-.456.457-.679l.01.127zM3.042 11.218a5.312 5.312 0 0 1-.478.69v-.404c.16-.106.298-.223.478-.286"/>
        <path fill="#6F3D22" d="M6.38 11.398c-.5.255-1.052.456-1.722.424-.085-.063-.17-.138-.191-.254.021 0 .042.01.053-.01v-.022l.021.032c.075-.032.192-.032.287-.053a4.7 4.7 0 0 0 1.18-.297c.15.01.288.085.373.18"/>
        <path fill="#FFCA05" d="M2.468 11.557v.34c-.032.032-.064-.01-.064-.043a4.211 4.211 0 0 1-.425-.615c.15.117.383.148.49.318M3.191 11.303h-.01l-.022.222a.285.285 0 0 0-.042.191c-.022.064-.053.128-.117.16-.096.01-.17.074-.287.074.096-.191.223-.372.35-.552a.27.27 0 0 1 .128-.138v.043zM19.117 11.822h-.202c-.021-.042-.096-.02-.128-.042-.117-.138-.106-.34-.16-.52.203.149.32.371.49.562M2.022 11.504c.085.138.244.297.266.435-.043-.042-.117-.042-.181-.042-.032-.043-.128-.011-.149-.075-.01-.148-.043-.233-.064-.37l-.032-.118c.096.01.085.117.16.17"/>
        <path fill="#6F3D22" d="M14.195 11.387c.031.032.106.032.148.053.064.022.15.011.213.022v.01c.117.032.255.01.35.053-.01.075-.084.096-.127.138h-.319v-.01l-.308-.022c-.032-.031-.096-.042-.149-.042 0-.053-.063 0-.085-.032.043-.085.075-.201.18-.212.012.032.054.053.097.042M7.88 11.536c.032.095-.096.042-.107.095-.287.022-.755.149-.935-.106.149-.031.319-.01.468-.031.106-.054.233-.054.34-.107.127-.01.127.107.234.149M15.47 11.536c.17.117.383.201.585.276.053.042.138.053.202.085.043.01.074.032.117.02.01.043.074.033.117.043.032.032.096.043.149.043.01.042.117 0 .074.085-.117.159-.319.19-.542.148-.106-.01-.17-.074-.287-.074-.053-.043-.128-.064-.191-.085-.224-.117-.49-.202-.628-.424.085-.117.277-.297.404-.117M6.806 11.748c-.351.212-.734.297-1.127.414l-.021-.021c-.043.032-.128.032-.192.053l-.16.01c0-.053-.063-.01-.084-.042-.096-.032-.128-.085-.18-.16-.022-.084.063-.042.095-.063.308-.053.595-.148.903-.223.16-.074.33-.148.5-.222.117.031.18.17.266.254M13.844 11.653c.032.031.085.042.138.042.021.032.096.032.128.053.159.01.34.021.467.032.032.01.043.01.107.032.01.053-.053.074-.085.095-.054.043-.17.022-.234.064-.128-.053-.33 0-.468-.032 0-.053-.064-.01-.085-.042.021-.032 0-.064.032-.085l-.15-.117c.054-.021.086-.085.15-.042M8.167 11.727c-.043.074-.17.064-.181.17.032.02.085.02.085.063-.138.117-.404.043-.606.064a.362.362 0 0 1-.276-.212c.276-.01.563-.032.797-.128.074-.01.16-.01.18.043M15.034 11.886c.15.117.32.17.521.255.117.095.277.127.426.159.021.042.095.042.127.053.043.032.107 0 .149.032-.021.18-.244.159-.383.212-.021-.021-.053-.01-.074-.01-.032-.032-.096-.043-.16-.043 0-.053-.053 0-.074-.032-.191-.095-.425-.127-.585-.276-.095-.074-.255-.127-.244-.276.095-.032.106-.148.202-.148l.095.074zM7.061 11.94c.032.042.117.084.117.148a3.994 3.994 0 0 1-1.297.445c0 .032.01-.01-.01-.01-.033.032-.139-.01-.203-.01-.042-.054-.117-.096-.127-.17.085-.075.202-.064.319-.107.244-.053.467-.138.701-.212.139-.074.266-.16.436-.18l.064.095z"/>
        <path fill="#FFCA05" d="M18.894 11.886c.053.042.17.01.191.085-.234.095-.489.18-.734.244.117-.096.234-.276.394-.371.021.053.106.01.149.042M20.106 12.003c.032.053.106.042.095.127h-.042c-.021-.053-.107-.01-.15-.042-.031-.032-.095-.043-.158-.043-.032-.032-.096-.042-.15-.032-.01-.053-.074-.01-.106-.042-.01-.096.117-.021.16-.074.021-.011.085-.011.096-.053.116.01.148.127.255.159M3.393 12.151c.043.032.117.075.117.128h-.064a.375.375 0 0 0-.223-.075h-.042a.437.437 0 0 0-.234-.074h-.032c-.021-.042-.096-.021-.117-.064.138-.02.234-.148.393-.106.064.085.128.117.202.191M2.054 11.96c.032.032.095.043.16.043.02.042.127.01.137.074-.244.117-.531.17-.786.255.095-.17.297-.234.414-.372h.075z"/>
        <path fill="#6F3D22" d="M13.844 12.035c0 .01.01.02.01.031.022 0 .022-.01.032-.02.085.031.33 0 .457.031a.402.402 0 0 1-.265.223c-.128 0-.415.095-.436-.085h-.053c0-.074.085-.16.138-.191.032.021.085.01.117.01"/>
        <path fill="#FFCA05" d="M19.66 12.077c.031.032.095.042.159.032a.18.18 0 0 0 .148.042c.032.032.096.043.16.043 0 .042.064.01.096.032v.031c-.17.043-.362.149-.543.075-.095-.096-.117-.18-.191-.266l.17.011z"/>
        <path fill="#6F3D22" d="M8.21 12.098a.156.156 0 0 0-.043.138c-.032 0-.022.032-.022.053 0 .021-.01.043.011.053h.01c-.063.085-.18.096-.318.085-.053-.01-.085-.064-.15-.074-.042-.085-.17-.085-.116-.202.244.043.393-.074.627-.053M15.321 12.533a.342.342 0 0 0 .213.074c.01.043.075.032.106.043.043.042.17 0 .181.085 0 .095-.095.106-.149.159h-.255c-.021-.043-.074-.032-.117-.043 0-.053-.053-.01-.074-.042-.287-.127-.649-.244-.798-.541.086-.032.086-.191.192-.16.191.192.446.33.701.425"/>
        <path fill="#FFCA05" d="M19.117 12.109c-.075.127-.16.297-.298.307-.127-.01-.234-.031-.372-.02.01-.011 0-.022-.01-.033 0 .011-.011.022-.011.032-.01-.042-.064-.02-.106-.032v-.02c.233-.075.467-.15.69-.234h.107zM3.042 12.226a.375.375 0 0 0 .224.074c.042.053.148.021.17.085-.16.074-.468.074-.627.042-.064-.095-.15-.18-.203-.276.139-.01.266.075.436.075"/>
        <path fill="#6F3D22" d="M7.401 12.204c0 .064.064.075.053.149-.372.212-.723.424-1.158.51-.128-.012-.234-.107-.32-.202 0-.085.128-.054.192-.075a4.1 4.1 0 0 0 1.138-.445c.053-.01.063.042.095.063"/>
        <path fill="#FFCA05" d="M19.617 12.533c-.075.149-.117.297-.213.435l-.032-.032c0-.254-.01-.52-.042-.763.031-.054.053 0 .095.02.064.107.202.192.192.34M19.244 12.194c.043.19.011.456.022.657a.48.48 0 0 1-.138-.18c-.022-.085-.118-.148-.107-.223.085-.085.138-.19.223-.254M2.351 12.226c-.095.095-.095.307-.297.286v-.021l-.266-.021c-.01-.053-.085-.011-.117-.043.213-.085.436-.19.68-.201M2.692 12.671c-.022.106-.085.17-.139.265 0-.02.011-.063-.01-.085h-.01c.052-.159 0-.381.031-.562.053.117.287.223.128.382M2.475 12.406c-.011 0-.022.01-.033.01.088.054-.044.096.033.138v.043c-.011 0-.022.01-.033.01.044.022.022.064.033.107h-.011L2.442 13c-.033-.17-.286-.371-.1-.53.045-.022.1-.234.133-.064"/>
        <path fill="#6F3D22" d="M14.545 12.576c.17.18.404.244.638.34.075.02.128.063.192.105-.085.138-.298.138-.479.149-.234-.106-.414-.287-.616-.435-.043-.053-.075-.096-.117-.149.095-.031.074-.297.202-.17l.18.16zM14.035 12.448c-.042.085-.085.17-.191.202-.043 0-.117.042-.181.01-.138-.328.223-.18.372-.212M7.858 12.618c-.382.191-.712.456-1.158.541 0-.053-.054-.01-.064-.042-.075-.043-.202-.043-.202-.16.085-.042.191-.074.297-.095.224-.095.458-.212.68-.307.086-.011.107-.138.224-.096.053.074.202.064.223.16M8.135 12.979c-.277.159-.457.435-.808.467v.02c-.053-.052-.17-.01-.245-.042-.064-.042-.127-.074-.191-.116v-.085c.202-.032.361-.127.542-.202.255-.106.468-.254.68-.414.043.096.032.255.022.372M14.343 12.958c.15.116.32.233.49.318.031.085-.054.106-.107.148-.095.022-.16.053-.266.043 0-.053-.063-.01-.074-.043-.202-.17-.436-.35-.574-.583.096-.021.17-.117.287-.117.064.096.17.138.244.234M14.28 13.53c.042.054-.022.107-.043.16-.064.042-.117.042-.202.042a1.371 1.371 0 0 1-.372-.233v-.51c.202.202.393.382.617.542M8.135 13.403a7.244 7.244 0 0 0-.298.223c-.085.074-.17-.01-.255-.021-.032-.18.202-.127.266-.244.106-.021.17-.117.255-.18.053.042.021.148.032.222"/>
        <path fill="#FFCA05" d="M7.571 13.785c.245.075.394-.095.564-.18.032.117-.021.276.032.371.01.18-.245.096-.266.255-.075.032-.128.095-.202.127-.202-.255-.372-.52-.585-.764.266-.106.255.18.457.191M14.599 13.637c-.192.233-.383.466-.564.679-.085-.17-.202-.34-.383-.425v-.212c.213.053.564.34.766.053.053-.053.074-.148.18-.095M13.79 14.21c.16.244.192.626.118.933-.032.032-.032.117-.054.149-.02.053.011.127-.02.17h-.011l-.032.233h-.011c-.096.467-.096 1.103.053 1.528-.149.031-.297-.085-.436-.17-.063-.074-.085-.17-.127-.255l.01-.382c.043-.042.043-.116.043-.18.042-.042.032-.127.042-.191.043-.021.011-.085.032-.127a.504.504 0 0 0 .075-.223c.053 0 .01-.064.042-.085.032-.095.085-.18.107-.286-.032-.022-.032-.096-.107-.064-.021.064-.074.074-.064.148-.031.032-.042.096-.042.16-.032.042-.032.137-.043.201-.031.043-.01.106-.031.149-.032.031-.032.095-.032.138-.043.031-.043.095-.054.127-.074.255-.233.424-.414.605-.096.042-.192.095-.287.127a3.46 3.46 0 0 1 .244-.35c.17-.255.362-.52.457-.838.054-.032.022-.106.075-.149.042-.127.074-.254.117-.382.042-.032.021-.127.064-.159-.011-.138.053-.223.053-.36h.01c.022-.202.054-.35.064-.552.085-.021.075.095.16.085M8.22 14.464c.01.16.074.276.085.435.106.764.5 1.348.893 1.92v.043c-.202 0-.372-.117-.478-.297a2.304 2.304 0 0 1-.288-.838c-.031-.16.022-.425-.16-.499-.063.01-.052.095-.052.149.021.137.074.244.085.392.064.191.096.414.117.647-.032.043.032.043.01.106-.042.011-.01.085-.031.128-.054 0-.011.053-.043.074-.117.286-.33.584-.67.594 0-.01-.01-.021-.021-.021.043-.149.16-.297.18-.488.033-.032.043-.096.043-.149.043-.063.022-.18.064-.244-.01-.01.01-.042-.01-.053h-.022c.075-.18-.01-.34-.021-.53-.085-.287-.085-.637-.17-.923.032-.106.053-.212.085-.33.085-.116.202-.275.393-.254l.01.138z"/>
        <path fill="#FFCA05" d="M7.71 16.788c-.043.053-.064.127-.085.19-.054.096-.107.192-.15.308-.031.021-.031.075-.063.106.053.149.255.107.383.096a.901.901 0 0 0 .276-.117c.106-.01.18-.117.234-.201.149-.128.16-.35.297-.478.054.18-.02.446.118.573.031.117.106.223 0 .318-.33.032-.67 0-1.064 0 0-.042-.074 0-.095-.031-.181-.032-.277-.202-.34-.35-.064-.287.085-.457.276-.595.053-.042.17-.021.223-.063l-.01.244zM14.226 16.756c.096.117.086.329.064.488a.601.601 0 0 1-.52.329c0-.021-.096-.021-.128 0v.01l-.021-.02c-.011.01-.022.01-.022.02l-.021-.02c-.043.052-.128.02-.191.02 0-.01-.01-.01-.01-.02-.075.052-.203.02-.299.02a.186.186 0 0 1-.138-.127v-.032c.043 0 .01-.053.043-.063.074-.096.127-.202.212-.298.096.149.266.18.394.287h.053c.032.032.095.042.149.032.053.032.138.053.212.032.085-.01.043-.128.032-.18-.074-.202-.17-.436-.138-.67.16-.02.213.15.33.192"/>
        <path fill="#6F3D22" d="M13.025 16.851c-.085.16-.127.34-.255.467-.106-.01-.16-.106-.191-.201.16-.064.319-.16.446-.266M9.198 17.063c.053.138-.075.191-.138.255a.296.296 0 0 1-.139.01.723.723 0 0 1-.074-.402c.128.031.245.084.35.137M9.666 17.329c-.032.095-.128.148-.192.18-.095 0-.042-.138-.095-.18v-.223c.117.042.18.17.287.223M12.377 17.286c-.043.053-.064.138-.085.202-.022.021-.022.064-.054.074-.095.032-.085-.074-.138-.106-.042-.138.16-.18.192-.297a.167.167 0 0 0 .085-.053v.18zM12.76 17.498c.031.128-.15.117-.192.202-.021.01-.074 0-.074.043-.064-.022-.128-.096-.085-.18.031-.011.042-.065.031-.107.086.01 0-.095.075-.085.095.01.18.085.244.127M9.198 17.382c.01.074.032.148.053.201-.074-.01-.138-.063-.213-.095.054-.021.107-.085.16-.106"/>
        <path fill="#FFCA05" d="M17.012 17.838c.319.371.52.796.563 1.337h.01c-.052.095-.01.254-.042.371-.042.043-.031.127-.031.191-.043.021-.032.074-.043.117-.053 0-.01.064-.042.085-.128.329-.266.657-.553.88-.096.16-.287.202-.404.33a2.412 2.412 0 0 1-1.478.254c-.043-.032-.117-.043-.191-.032-.064-.064-.202-.01-.256-.074-.031-.011-.074-.043-.127-.043-.043-.042-.128-.02-.16-.074-.319-.149-.584-.435-.829-.668-.106-.085-.149-.213-.255-.276-.074.106-.096.233-.149.34-.042 0 0 .063-.032.084-.042.106-.074.212-.117.329-.042.074-.117.149-.117.265-.042.064-.063.138-.095.202-.234.605-.596 1.114-.978 1.634-.064.02-.107.127-.17.148-.128.18-.34.287-.49.425h-.116c-.064-.022-.107-.085-.16-.117-.266-.17-.478-.425-.723-.615-.17-.223-.319-.457-.468-.68a9.502 9.502 0 0 1-.765-1.74c-.053-.031-.043-.18-.149-.127-.308.414-.66.711-1.084.955l-.053.032c0-.01-.011-.021-.011-.032-.17.064-.298.18-.51.17l-.181.042c0 .032 0-.02-.01-.02-.192.03-.32.063-.532.03v-.01l-.266-.031c0-.053-.064 0-.085-.032-.49-.16-.883-.51-1.212-.913a2.21 2.21 0 0 1-.393-.912 1.648 1.648 0 0 1 .02-.722c.033-.02.043-.074.043-.116.032-.043.022-.128.075-.17.16-.456.563-.86 1.052-.966.192.35.372.732.734.955.106.064.234.128.372.149.01.053.085.021.127.042.032.032.107.032.15.053.106.011.233.011.329.053 0 .128.064.213.074.33-.191.063-.404.02-.638.031v-.01c-.074-.011-.138-.032-.212-.022-.053-.074-.17-.02-.234-.074h-.032c-.064-.042-.128-.064-.191-.095-.117-.075-.245-.149-.32-.266-.159-.159-.265-.36-.36-.562-.107.01-.128.127-.192.191-.138.074-.149.244-.191.382a.225.225 0 0 0-.032.17H4.86c-.074.679.17 1.23.628 1.602.212.127.404.275.648.318a.29.29 0 0 0 .17.042v.011c.872.085 1.584-.329 1.967-1.03.096-.211.234-.402.308-.636.032-.021.022-.106.064-.127.01.085.202.223.064.35-.064.043-.01.117.042.127.139.011.213-.063.34-.074.107.35.235.69.33 1.061a4.804 4.804 0 0 0 1.02 1.814c.16.16.32.35.522.446.595-.477.946-1.093 1.254-1.75h.01c.054-.16.139-.266.182-.425.031-.021.042-.074.031-.117.054-.063.075-.17.117-.244.032-.127.096-.222.128-.34.021-.126.064-.211.064-.339.042-.01.01-.074.042-.106.096.021.181.117.32.064.02-.17-.16-.234-.096-.446.053 0 .01-.063.042-.085.032-.042.053-.095.096-.127.02.01.085.01.085.085.032.127.064.265.127.382.256.668.883 1.188 1.595 1.358.128.053.287.021.447.032-.011.01 0 .021.01.021 0 0 .01-.01.01-.021l.022.021c.075-.032.18-.032.277-.053.531-.074.999-.446 1.19-.934.16-.34.149-.848.021-1.199-.02-.18-.159-.307-.233-.456-.022 0-.054-.042-.085-.032-.256.425-.606.839-1.106.966-.192.085-.425.106-.66.127v-.01l-.233-.022c-.01-.032-.064-.042-.106-.042-.022-.043-.15 0-.117-.085.031-.021.042-.074.031-.117.064-.02-.01-.148.086-.148h.095v.01a.295.295 0 0 0 .192 0c.02-.032.202.011.287-.042.372-.085.712-.297.978-.562.117-.202.276-.382.319-.637.042-.053.063-.138.117-.19.19.095.319.264.51.381"/>
        <path fill="#FEFEFE" d="M9.963 17.668c-.02.053-.053.149-.02.223a.18.18 0 0 0 .105.032c.022-.064-.01-.138.022-.191.053-.021.053.032.085.042v.213h-.01l-.022.222-.128-.01c-.053-.01-.106-.074-.127-.117a.73.73 0 0 1 0-.52c.085-.01.053.074.095.106"/>
        <path fill="#6F3D22" d="M9.166 17.753c.021.053-.043.053-.053.074-.075-.042-.192-.095-.192-.212.022-.032.054-.042.107-.042.042.063.053.148.138.18"/>
        <path fill="#FEFEFE" d="M11.92 17.743c-.043.053-.011.17-.075.212-.032.085-.085.17-.18.18.02-.042.01-.106.01-.148h.01c.022-.043.011-.096.022-.149h.021c0 .021 0 .032.01.042h.033c-.011.011 0 .022.01.022.107-.043.053-.202.085-.297h.053v.138z"/>
        <path fill="#6F3D22" d="M12.93 17.743c-.043.084-.16.148-.245.201-.085.021-.043-.085-.085-.106.032-.085.16-.127.223-.202.075-.02.128.032.106.107"/>
        <path fill="#FFCA05" d="M9.623 17.764c-.01.127.064.19.043.318a.43.43 0 0 0-.085.202c-.096.18-.139.413-.224.604-.042.022-.02.085-.042.128-.043.01-.032.074-.032.116-.053.011-.01.075-.043.106-.127-.159-.159-.382-.265-.572-.032-.085-.011-.17.02-.266.054 0 .011-.053.043-.074.117-.212.213-.435.415-.573.053 0 .117.01.17.01M12.292 17.806c.202.18.393.393.467.658.085.286-.106.435-.117.69-.01 0-.01.01-.02.01.01.01.01.021.02.01-.042.022-.01.107-.032.15-.084-.011-.053-.128-.074-.192-.16-.413-.244-.859-.478-1.23.053-.022.01-.128.063-.149.054.021.107.127.17.053M8.496 17.796c.021 0 .021-.011.032-.022.106.022-.042.106-.042.16-.117.095-.15.265-.309.318.053-.16.192-.265.213-.446.021-.032.096.01.096-.042 0 .01.01.021.01.032M13.431 17.944c.044.021.011.085.033.127-.033-.063-.237-.18-.194-.275.13-.043.15.053.161.148"/>
        <path fill="#6F3D22" d="M9.049 17.987c-.053.02-.032.148-.128.095-.042-.085-.255-.042-.19-.202.01-.031.063-.074.105-.074.054.074.192.085.213.18M13.153 17.997c-.096.053-.234.096-.32.16-.031-.011-.052-.043-.042-.096.064-.074.138-.191.234-.223a.369.369 0 0 1 .128.16"/>
        <path fill="#FEFEFE" d="M11.547 17.87c-.042.201-.032.456-.244.53h-.01v-.18c.02.01.031-.01.031-.032v-.053c0 .032.085.064.096.01.053-.084.106-.158.106-.275h.021zM10.389 18.018h-.01c-.044.096.01.17.03.244.097.032.086-.074.086-.127-.032-.064.032-.074.042-.117.032.17-.01.34.043.488h-.053c-.064-.01-.096-.095-.149-.116a.646.646 0 0 1-.053-.488c.074 0 .064.063.064.116"/>
        <path fill="#6F3D22" d="M8.9 18.188c.01.064-.032.085-.064.096-.095-.043-.159-.117-.297-.085-.043-.064.032-.096.064-.138.148-.032.18.095.297.127M13.387 18.199h.01v.042h-.01c0-.021-.01-.021-.01-.032-.118.106-.33.064-.437.18-.021-.042-.074-.063-.042-.116.053-.106.212-.138.297-.202.085 0 .139.085.192.128"/>
        <path fill="#FEFEFE" d="M10.846 18.146l.032.254h.01c-.063.043 0 .096.032.128.085-.043.107-.128.096-.223-.01-.021-.043-.01-.032-.043.021-.031.032-.106.085-.116h.085v.053c-.01 0-.021.01-.021.01.042.01.01.075.021.106-.042.043-.01.16-.074.202-.043.085-.075.16-.17.18-.054-.01-.096-.074-.128-.116a.686.686 0 0 1-.064-.467c.075-.032.064.042.128.032M12.122 18.4c.19.467.372.976.329 1.57-.032.064-.042.15-.106.202-.096.053-.16.17-.298.127-.01-.148.021-.159-.021-.275.01 0 .01-.011.021-.022l-.01-.01c0-.393-.107-.7-.16-1.072-.064-.17-.074-.392-.138-.583l.074-.053c.213.509.34 1.071.34 1.708l.043.053.053-.074a3.757 3.757 0 0 0-.319-1.762c.021-.031.01-.074.064-.074.064.085.085.18.128.265"/>
        <path fill="#6F3D22" d="M8.528 18.262c-.01.011 0 .022.01.022.011.01.022 0 .022-.011.064.01.17.053.223.127 0 .032.01.064.01.106-.159.106-.233-.148-.446-.074-.063-.053.043-.244.181-.17"/>
        <path fill="#FEFEFE" d="M9.931 18.475c-.074.031-.01.137-.074.17-.01.095-.096.148-.085.254-.032.032-.043.085-.032.138-.01 0-.021.01-.032.01.01.011.021.022.032.022a.893.893 0 0 0-.074.35h-.022l-.02.265h-.012c-.01.17-.063.403.054.51l.042-.043.021-.488c.011 0 .011-.01.022-.01-.01-.043.01-.181.021-.255.021-.138.064-.223.064-.372a.118.118 0 0 0 .042-.116c.032-.022.043-.064.043-.117.032-.064.064-.127.096-.202.074-.053 0-.254.138-.212.064-.021.053.074.085.085-.053.17-.17.286-.192.477 0 .16-.159.223-.117.414-.042.032-.042.117-.053.16l-.021.222h-.021c-.01.074-.032.138-.021.223h-.011l-.01.382c-.203-.01-.277-.202-.352-.35-.063-.202-.031-.478-.02-.711.031-.043.042-.117.031-.191.043-.042.043-.127.053-.18.021-.032.021-.085.032-.128.043 0 0-.053.032-.074.064-.148.128-.297.223-.446.043.064.224.075.138.213"/>
        <path fill="#6F3D22" d="M13.504 18.326c-.043.064-.139.127-.192.191-.106.021-.202.117-.33.064 0-.085.064-.149.15-.18.116-.043.223-.064.372-.075M8.454 18.528c0 .053.053.01.074.042.064.01.106.064.192.074-.139.022-.277-.074-.447-.063-.043-.064-.138-.085-.16-.17.117.01.17.16.34.117M13.844 18.464c0 .074-.107.085-.085.17-.117.106-.075.392-.33.286-.021-.042-.117-.01-.117-.074.18-.021.245-.17.394-.265.01-.032-.022-.043-.022-.064-.138.032-.202.149-.34.149-.032.063-.127.031-.191.042.095-.074.255-.096.319-.233.085-.096.287-.085.372-.011"/>
        <path fill="#FEFEFE" d="M11.611 18.506c.053.16.096.319.138.478.117.392.15.912.128 1.39-.043.02-.01.085-.032.127-.085.042-.106.148-.18.191-.107 0-.245.021-.298-.064v-.583c.02 0 .02-.01.032-.01-.075-.022.042-.054-.011-.107 0-.318-.074-.615-.064-.944-.053-.085-.021-.244-.085-.33-.021-.052.043-.052.053-.084.032 0 .053-.021.096-.01.16.54.18 1.198.16 1.814.01.02.042.01.063.01.043-.032 0-.116.053-.138l-.01-.01c.01-.223.053-.488 0-.743h-.01c.03 0 .03-.064 0-.074.02-.372-.086-.647-.16-.966.042-.084.127 0 .127.053"/>
        <path fill="#6F3D22" d="M8.092 18.623c.117.085.266.085.436.096.01.042.075.031.117.042v.01c.032.022.085.022.128 0v-.02c.085 0 .063.105.138.148.01.117.138.17.095.308-.031.032-.095.042-.159.032.032-.032.138-.022.117-.107-.043-.02-.074-.053-.128-.042l.043-.106c-.021-.053-.106-.064-.16-.064.011-.042.096 0 .086-.074 0-.043-.054-.021-.054-.064-.127.021-.255.074-.382.106-.075-.01-.117-.095-.213-.074-.01-.053-.064-.021-.085-.042-.032-.117-.085-.223-.117-.33.096 0 .075.139.138.181M7.953 18.571c.033.013.016.074.016.11-.065-.048-.18-.11-.196-.183.082-.037.196-.012.18.073M14.003 18.496c0 .042.117 0 .075.085-.096.01-.128.19-.224.085.054-.032.022-.138.086-.17h.063zM7.76 18.672l.011.088c-.077-.037-.2-.037-.2-.163.067-.088.156 0 .19.075"/>
        <path fill="#FEFEFE" d="M10.431 18.772a.431.431 0 0 0-.085.201c-.032.032-.043.085-.032.138-.032.021-.042.074-.042.117-.043.053-.011.17-.075.223v.159h-.01c-.011.074-.043.127-.032.201h-.01a.955.955 0 0 0 0 .425c.03.053-.011.212.095.244l.021-.032v-.7c.032-.053.032-.16.053-.223.01-.053.032-.096.021-.16.043-.02.032-.095.043-.148.053-.053.043-.127.074-.201v-.043c.043-.042.022-.127.075-.159v-.053c.042-.01.021-.064.042-.095h.022l-.011.275h-.01l-.033.457h-.01c-.043.35-.032.764-.01 1.135-.086.063-.128.148-.267.106-.074-.01-.116-.064-.18-.096-.213-.138-.107-.488-.117-.732h.01c.011-.063.043-.127.032-.212h.01l.022-.233c.032-.01.053-.064.043-.106.032-.032.042-.096.042-.16.032-.053.064-.127.085-.19.085-.096.043-.34.234-.308v.17z"/>
        <path fill="#6F3D22" d="M14.334 18.602c.076.128-.152.128-.203.2.05-.014.025-.2.203-.2"/>
        <path fill="#FFCA05" d="M16.682 18.719c.064.244.117.509.096.817h-.01c-.033.37-.256.626-.5.848-.372.255-.936.34-1.425.223-.042-.042-.128-.021-.17-.074h-.053c.01-.053-.043-.01-.064-.043-.35-.127-.627-.466-.797-.753.053-.117.18-.201.18-.371 0-.053.096-.053.139-.032.02.032.063.042.117.032 0 .053.053.01.074.042.393.149 1.042.18 1.414-.021.361-.16.702-.403.914-.743.053-.01.075.032.085.075M5.658 19.175c.16.117.287.254.52.276v.01c.064.01.118.032.192.022v.01c.064.01.128.043.202.032v.01c.436.064.861-.031 1.223-.17.074.118.106.287.276.308 0 .053.053.011.074.043-.074.276-.297.467-.478.668-.085.021-.138.128-.234.117-.18.138-.393.202-.627.244 0 .032 0-.01-.01-.01-.139.063-.352.031-.511.02 0-.01-.01-.02-.021-.02 0 0-.01.01-.01.02-.373-.116-.735-.318-.915-.668-.022-.053-.075-.085-.096-.127-.042-.223-.128-.393-.149-.626.01 0 .021-.01.021-.01 0-.022.011-.043-.01-.054-.021 0-.01-.032-.01-.053h.01l.032-.307c.042 0 0-.064.032-.085.042-.032.021-.117.063-.138.16.127.234.371.426.488"/>
        <path fill="#6F3D22" d="M7.635 18.793c.021.063-.032.074-.053.106-.085 0-.117-.053-.202-.053v-.064c.053-.032.064-.116.149-.095l.106.106zM14.422 18.724c.047.093 0 .278-.14.232-.046-.092 0-.278.14-.232"/>
        <path fill="#FEFEFE" d="M11.133 18.782c.064.372.149.743.106 1.178l-.01.467h-.011c-.01.159-.021.318-.138.403-.075 0-.085.063-.17.042-.064-.02-.139-.042-.16-.116-.191-.244-.074-.68-.106-1.019h.01l.032-.456c.01 0 .01-.01.022-.01-.022-.075.031-.245.01-.372.053-.01.021-.064.032-.106.032.01.085.032.096.064l.032 1.814c.01.021.053.063.085.021.01-.255.032-.552-.01-.785h.01c.01-.096.032-.223-.01-.297l.02-.021c0-.011-.01-.022-.02-.011.03-.064.03-.202 0-.255.03-.021.02-.095.02-.148 0 0-.01-.01-.02-.01.074-.107-.075-.425.18-.383"/>
        <path fill="#FFCA05" d="M14.067 18.899a.256.256 0 0 1 .043.18c-.128-.01-.213-.148-.256-.244.096-.053.139.053.213.064"/>
        <path fill="#6F3D22" d="M8.22 19.032c-.01.039-.053.02-.075.02 0-.02-.01-.04-.01-.04-.043.04-.075.04-.128.04-.032-.059-.01-.156.021-.196.086 0 .128.118.192.176M13.253 18.95c-.023.046-.229.092-.206-.093l.206.092z"/>
        <path fill="#FFCA05" d="M7.826 18.963c-.053.063-.063.148-.127.19-.043 0-.085.022-.128.011-.063-.19.15-.19.245-.265.021 0 0 .042.01.064"/>
        <path fill="#6F3D22" d="M13.066 19.03c-.037.02-.037.06-.037.08l-.163-.02v-.18c.072 0 .2.08.2.12M14.418 18.91c.038.095-.058.17-.134.244h-.058c.039-.085.02-.17.096-.244h.096zM7.645 19.14a.3.3 0 0 0-.14.011v.022c-.14-.044-.14-.122-.093-.2h.233v.167zM13.757 19.252h-.2c.05-.093.1-.232.2-.279v.28zM8.145 19.142v.035c-.063.054-.148.018-.223.036-.021-.071 0-.178.032-.196.085-.017.138.018.191.125"/>
        <path fill="#FFCA05" d="M8.432 19.09c-.042.01 0 .085-.031.117-.054.095-.043.244-.16.286-.01-.042-.032-.095-.021-.16.074-.084.064-.2.149-.264.042 0 .032-.053.063-.043v.064z"/>
        <path fill="#6F3D22" d="M12.988 19.29l-.046-.06c-.023.02-.046.02-.046.06-.069-.04-.16-.1-.092-.2l.184.02v.18zM13.831 19.184c-.027.325-.12.185-.2.231v-.231c.067.046.133-.14.2 0M8.122 19.466h-.2v-.232c.1-.093.138.14.2.232"/>
        <path fill="#6F3D22" d="M12.956 19.327v.046l-.186-.092c.093 0 .14 0 .186.046M13.913 19.373h-.186c0-.092.093-.092.186-.092v.092zM9.096 19.391c-.098.023-.024.124-.171.136-.05-.045-.074-.159.024-.193.147-.034.05.057.147.057M8.221 19.608c-.147-.015-.206-.061-.235-.138l.118-.062c.205 0 .058.139.117.2M12.948 19.637l-.093-.186h.093zM13.863 19.488c-.033.085-.1.122-.2.159.033-.061.083-.293.2-.16"/>
        <path fill="#FFCA05" d="M12.302 20.427c-.053 0-.01.063-.042.085-.053.18-.128.328-.192.509h-.01c-.32.573-.606 1.23-1.138 1.612-.372-.381-.744-.763-.935-1.251-.128-.17-.192-.361-.245-.573-.053-.085-.117-.191-.096-.319.085-.042.16.011.224.053.032.032.042.106.095.117.043.074.139.053.181.127.16-.01.308.022.394-.084a.366.366 0 0 0 .276.275c.053.075.191.022.255.011.117-.01.17-.16.287-.17v.01c.213.043.415 0 .542-.126.128-.043.032-.276.224-.255.02.021.095-.042.18-.021"/>
        <path fill="#FEFEFE" d="M13.513 12.303c.237 2.376-.476 4.582-2.546 5.77-2.24-1.052-2.817-3.394-2.648-5.838.985.136 1.935-.136 2.614-.713.679.544 1.595 1.053 2.58.78"/>
        <path stroke-linecap="square" d="M13.513 12.303c.237 2.376-.476 4.582-2.546 5.77-2.24-1.052-2.817-3.394-2.648-5.838.985.136 1.935-.136 2.614-.713.679.544 1.595 1.053 2.58.78z"/>
        <path fill="#2178B4" d="M13.27 12.554v1.165H8.543v-1.165c.891-.034 1.816-.103 2.364-.788.617.583 1.474.856 2.365.788"/>
        <path stroke-linecap="square" d="M13.27 12.554v1.165H8.543v-1.165c.891-.034 1.816-.103 2.364-.788.617.583 1.474.856 2.365.788z"/>
        <path fill="#E21D3C" d="M13.202 13.993c-.103 1.541-.857 3.049-2.33 3.803-1.37-.822-2.158-2.262-2.261-3.803h4.59z"/>
        <path stroke-linecap="square" d="M13.202 13.993c-.103 1.541-.857 3.049-2.33 3.803-1.37-.822-2.158-2.262-2.261-3.803h4.59z"/>
        <path fill="#FEFEFE" d="M9.296 16.151c-.445-.548-.137-1.37-.24-2.055h.24v2.055zM10.016 17.008l-.309-.343v-2.57h.309zM10.666 17.624l-.24-.24v-3.288h.24zM11.317 17.419l-.205.171-.034-3.494h.24zM11.968 16.87l-.24.24v-3.014h.24zM12.722 14.096c-.103.753.274 1.713-.342 2.26v-2.26h.342zM8.909 13.274l.045.125.135.003-.108.08.04.127-.112-.076-.112.076.04-.127-.109-.08.136-.003zM10.508 13.188l.044.125.136.003-.108.08.04.127-.112-.075-.112.075.04-.126-.11-.08.137-.004zM8.909 12.646l.045.125.135.002-.108.081.04.127-.112-.076-.112.076.04-.127-.109-.08.136-.003zM12.163 13.217l.045.125.136.003-.108.08.04.127-.113-.076-.11.076.038-.127-.108-.08.136-.003zM11.279 13.188l.044.125.136.003-.108.08.04.127-.112-.075-.112.075.04-.126-.11-.08.137-.004zM10.336 12.36l.045.125.136.003-.108.08.039.128-.112-.076-.111.076.039-.128-.108-.08.136-.003zM10.936 12.018l.045.125.136.002-.109.08.04.128-.112-.076-.112.076.04-.127-.109-.08.136-.003zM9.724 13.256l.045.125.136.003-.108.08.039.127-.112-.075-.111.075.039-.127-.108-.08.136-.003zM9.651 12.56l.045.125.136.003-.109.08.04.127-.112-.075-.111.075.039-.127-.109-.08.136-.003zM12.277 12.617l.046.125.135.003-.108.08.04.128-.113-.076-.11.076.039-.128-.109-.08.136-.003zM12.934 13.245l.045.126.136.002-.108.08.04.127-.113-.075-.111.075.039-.126-.108-.08.136-.003zM12.934 12.674l.045.125.136.003-.108.08.04.127-.113-.075-.111.075.039-.126-.108-.08.136-.004zM11.564 12.389l.045.125.136.003-.109.08.04.127-.112-.076-.111.076.039-.127-.109-.08.136-.003z"/>
        <path fill="#231F20" d="M18.239 21.95c-.338 0-.612-.283-.612-.645 0-.355.274-.643.609-.643h.003c.338 0 .609.288.609.646 0 .359-.27.646-.609.643m0-1.407h-.003a.756.756 0 0 0-.754.76c0 .43.338.765.754.765a.75.75 0 0 0 .75-.764.751.751 0 0 0-.747-.761"/>
        <path fill="#231F20" d="M18.34 21.338h-.16v-.33c.039-.004.088-.008.16-.008.249 0 .337.085.337.17 0 .121-.155.168-.337.168m.298.062v-.008c.15-.03.272-.108.272-.237a.214.214 0 0 0-.128-.202c-.083-.043-.221-.074-.43-.074-.167 0-.277.012-.394.023v.977h.222v-.42h.154c.177 0 .266.046.299.171.027.128.06.218.093.25h.232a.648.648 0 0 1-.087-.242c-.028-.144-.111-.222-.233-.238"/>
    </g>
</svg>
